<svg version="1.1" id="Layer_1" xmlns="http://www.w3.org/2000/svg" xmlns:xlink="http://www.w3.org/1999/xlink" x="0px" y="0px"
	 width="100%" viewBox="0 0 288 288" enable-background="new 0 0 288 288" xml:space="preserve">
<path fill="#000000" opacity="1.000000" stroke="none" 
	d="
M84.819870,247.817932 
	C79.066528,242.559036 76.737488,235.959167 76.893677,228.935684 
	C77.012497,223.592957 78.066277,218.121918 81.420799,213.386093 
	C85.597397,207.489685 84.593849,200.273422 85.528664,193.620331 
	C87.669060,178.387070 88.167023,162.945709 91.447945,147.840897 
	C92.393066,143.489700 92.480759,138.958008 93.108200,134.529831 
	C93.464096,132.018036 91.736481,130.547974 90.617805,128.771011 
	C85.611206,120.818130 81.373764,112.758415 82.521751,102.752289 
	C82.966278,98.877602 84.191910,97.335609 87.982254,97.623100 
	C90.458023,97.810890 92.922852,97.597435 95.391525,98.365456 
	C98.857330,99.443703 101.326210,97.855820 102.403961,94.545792 
	C107.347137,79.364090 118.793503,70.912971 133.098907,66.376869 
	C147.409286,61.839188 161.933777,57.524815 177.335693,58.621025 
	C182.205795,58.967648 186.831573,60.013599 191.202850,62.153694 
	C195.212494,64.116737 199.679382,64.641502 203.732071,66.738853 
	C211.557297,70.788567 214.835815,78.292824 219.177994,85.077728 
	C221.609360,88.876877 223.887970,92.719589 224.336945,97.329498 
	C224.612747,100.161568 226.148651,100.606918 228.501785,99.682755 
	C228.656830,99.621872 228.810791,99.504913 228.965515,99.504456 
	C232.373871,99.494301 236.542496,94.996315 239.013397,99.950798 
	C241.707916,105.353622 238.973206,112.674339 233.791824,114.705788 
	C228.827148,116.652260 227.569824,119.349174 229.104462,124.308502 
	C230.327423,128.260651 230.401505,132.464081 230.373688,136.654526 
	C230.269684,152.315582 230.172821,167.980301 230.403091,183.638794 
	C230.581314,195.758850 232.155945,207.673462 236.133377,219.274033 
	C237.993729,224.699951 239.677689,230.376831 239.318848,236.304398 
	C238.795410,244.950577 230.336731,249.830338 222.695755,245.949768 
	C220.922012,245.048965 220.688385,243.447891 220.642044,241.728622 
	C220.513321,236.953568 218.133606,232.817963 216.796783,228.388733 
	C216.260040,226.610367 214.994812,225.259415 212.401382,224.372131 
	C210.998703,228.955383 207.908401,232.781036 209.095764,238.210236 
	C210.457672,244.437592 207.018723,249.729248 201.838547,250.322067 
	C194.420334,251.170990 190.211838,247.934387 189.687408,240.812546 
	C189.431656,237.339432 188.368652,233.979309 188.598297,230.426025 
	C188.805008,227.227798 188.286102,224.209457 183.923111,224.426682 
	C180.037659,224.620148 177.597687,226.559464 177.429535,230.548386 
	C177.240234,235.039444 176.951660,239.589798 177.454132,244.029724 
	C178.023605,249.061600 173.672394,252.557770 169.568863,253.235229 
	C164.798767,254.022766 161.732849,251.945145 159.715668,246.904678 
	C157.965073,242.530365 157.605789,237.883804 156.630356,233.356903 
	C156.211945,231.415192 155.900909,229.366180 155.018646,227.631653 
	C154.088760,225.803543 153.129318,223.279831 150.464310,223.647903 
	C147.850845,224.008850 146.925461,226.155350 146.316223,228.636749 
	C145.022415,233.906296 145.442230,239.229919 145.347397,244.543015 
	C145.240967,250.505356 143.477921,252.300064 137.622375,252.381195 
	C129.968033,252.487259 127.930344,250.952332 127.694801,244.651031 
	C127.557968,240.990173 127.634163,237.320892 127.638504,233.655426 
	C127.640930,231.604691 127.475723,229.641876 125.181763,228.160233 
	C122.592499,233.256882 121.488098,238.700333 120.286949,244.129395 
	C118.976791,250.051178 116.521683,252.403748 111.989861,252.369064 
	C106.526764,252.327255 102.810257,247.897400 102.684517,241.032394 
	C102.611267,237.033249 102.985397,232.997940 100.288834,229.559174 
	C99.187805,228.155121 98.367439,226.348770 96.332932,226.818130 
	C96.332932,230.717636 96.336632,234.471115 96.332199,238.224594 
	C96.321632,247.167679 94.165207,249.058823 84.819870,247.817932 
M192.608643,67.246338 
	C183.248138,62.514503 173.452530,61.180470 163.110489,63.077911 
	C154.672012,64.626106 146.441345,66.896355 138.194321,69.209618 
	C124.852196,72.952042 113.893288,79.572495 107.700172,92.578308 
	C105.752319,96.668884 106.237228,98.018082 110.651474,98.600784 
	C126.278862,100.663696 142.060181,100.459106 157.760468,101.437988 
	C167.668259,102.055717 177.627716,102.671371 187.584488,102.948761 
	C192.914658,103.097260 198.746643,102.328896 203.769531,104.681793 
	C208.609146,106.948845 212.638504,105.518028 216.903595,103.636139 
	C219.948715,102.292534 220.875168,100.434692 220.129425,96.927063 
	C218.681198,90.115303 213.365753,85.660088 210.520538,79.725067 
	C207.110580,72.611946 200.631531,69.353546 192.608643,67.246338 
M162.752197,242.683228 
	C163.907684,245.624283 164.811142,249.218170 168.937439,248.590561 
	C173.374298,247.915710 173.814392,244.340530 173.690231,240.557785 
	C173.553726,236.398987 173.661697,232.231873 173.678574,228.068436 
	C173.696777,223.579025 176.485275,221.526230 180.435242,220.778748 
	C182.208939,220.443100 184.099655,220.784912 185.917358,220.611115 
	C190.802475,220.144073 192.700378,222.627792 192.294510,227.134598 
	C191.900024,231.515030 193.091782,235.715225 193.479202,240.000534 
	C193.841751,244.010635 197.388229,247.248199 200.301575,246.466019 
	C204.306870,245.390671 205.882919,242.588608 204.944046,238.483566 
	C203.581955,232.528183 206.363312,227.330154 208.441299,222.206573 
	C210.282822,217.666077 214.611389,217.712265 217.823578,221.664871 
	C221.738937,226.482803 222.861694,232.397873 224.247849,238.174469 
	C224.710358,240.101807 224.249008,242.337860 227.113281,242.583450 
	C229.673019,242.802933 232.262466,242.889923 233.616714,240.129608 
	C234.770981,237.776962 235.494064,235.474121 235.184906,232.568054 
	C234.333389,224.563782 229.931595,217.544266 229.311691,209.488281 
	C229.098907,206.723297 226.672714,204.871719 223.886703,205.531937 
	C218.280548,206.860504 212.537048,205.652847 207.027130,206.697510 
	C194.982925,208.981079 182.939423,211.292465 170.951920,213.907822 
	C165.020126,215.201981 158.088898,216.501312 152.300598,211.790588 
	C150.721268,210.505295 148.873169,210.401901 147.777115,212.711838 
	C146.821381,214.726120 145.282700,215.634521 143.007187,215.623795 
	C128.385284,215.554855 113.814743,214.685883 99.353416,212.519791 
	C88.189491,210.847626 88.053940,210.643890 83.882568,220.859390 
	C81.255692,227.292496 81.693893,233.885208 84.464149,240.259567 
	C85.350121,242.298172 86.560989,244.346817 89.239494,243.757187 
	C91.734917,243.207855 92.609673,241.013000 92.551735,238.768829 
	C92.462204,235.300812 91.734596,231.842697 91.739510,228.381042 
	C91.742889,225.999802 90.348213,222.517838 94.311714,221.844406 
	C98.076309,221.204788 101.619560,221.744781 103.640564,225.793335 
	C105.377670,229.273178 106.602768,232.791199 106.374466,236.772308 
	C106.233276,239.234421 106.077583,241.736435 107.377457,244.084091 
	C108.490112,246.093643 109.790390,247.887772 112.256432,247.711884 
	C114.599953,247.544754 115.447487,245.572067 115.963165,243.549271 
	C117.232697,238.569305 118.388428,233.558090 119.770790,228.609970 
	C120.556473,225.797638 121.042183,222.273209 125.260178,222.837570 
	C129.352539,223.385117 131.244171,226.132202 131.316940,230.141571 
	C131.392502,234.303909 131.212952,238.476105 131.431641,242.628906 
	C131.605164,245.924377 133.093887,248.586777 136.864502,248.499435 
	C140.748169,248.409485 141.639130,245.700104 141.687943,242.294464 
	C141.763901,236.995193 141.547241,231.725479 142.443573,226.394943 
	C143.217484,221.792450 145.715103,220.123032 149.700272,219.694382 
	C155.250961,219.097336 158.894440,222.443359 160.207458,229.231613 
	C161.024414,233.455322 161.725311,237.701477 162.752197,242.683228 
M204.654602,153.766678 
	C210.986984,153.192230 217.083633,151.665680 222.941605,149.199783 
	C224.490005,148.547974 226.328781,147.830154 226.410950,145.958954 
	C226.764542,137.904556 227.523254,129.763916 223.893997,122.248116 
	C220.318497,121.723671 218.327271,124.249977 215.829102,125.345268 
	C207.590393,128.957367 198.162949,129.891251 191.217865,136.523041 
	C189.081177,138.563324 185.967575,139.360092 182.868042,139.366913 
	C175.874619,139.382294 168.830139,139.887222 161.903824,139.204742 
	C156.400223,138.662460 150.195206,138.994827 146.787186,132.582016 
	C143.813171,126.985893 141.336807,126.874809 137.130814,131.872772 
	C133.792252,135.839951 129.659882,137.977951 124.679436,138.289230 
	C117.369507,138.746109 110.113419,137.881943 103.008949,136.164383 
	C100.225060,135.491333 97.901520,135.387787 96.934845,138.482330 
	C96.149712,140.995712 95.714539,143.649246 95.408638,146.273773 
	C95.020844,149.600845 96.736580,151.650681 99.926727,152.453125 
	C107.977341,154.478149 116.180641,155.826187 124.412476,156.555847 
	C140.319550,157.965820 156.296463,157.852707 172.255112,157.622528 
	C182.885498,157.469193 193.395065,156.067764 204.654602,153.766678 
M171.056152,167.214233 
	C173.075867,169.814835 175.744537,171.806396 177.236069,174.938690 
	C181.733444,184.383408 182.505630,184.509705 191.324463,178.600845 
	C192.150101,178.047668 192.877304,177.331970 193.739105,176.850967 
	C198.517807,174.183777 200.585052,168.666153 205.164902,165.889801 
	C208.338608,163.965881 208.545120,161.771835 206.887711,158.794891 
	C195.740250,158.658585 184.883255,161.366119 173.814804,161.502869 
	C170.515778,161.543625 169.455399,163.491806 171.056152,167.214233 
M130.199783,162.163666 
	C126.685837,159.357010 125.074486,163.773773 122.401947,164.273315 
	C120.230133,164.679291 118.791344,166.322739 119.491371,168.662704 
	C120.245865,171.184738 122.609337,171.877457 124.727798,171.123016 
	C128.053528,169.938644 131.866241,169.176849 133.571930,165.043411 
	C132.679626,164.240219 131.716003,163.372818 130.199783,162.163666 
z"/>
</svg>