<svg version="1.1" id="Layer_1" xmlns="http://www.w3.org/2000/svg" xmlns:xlink="http://www.w3.org/1999/xlink" x="0px" y="0px"
	 width="100%" viewBox="0 0 224 288" enable-background="new 0 0 224 288" xml:space="preserve">
<path fill="#000000" opacity="1.000000" stroke="none" 
	d="
M58.895279,151.391632 
	C59.551006,142.338531 61.729519,133.849960 61.548820,124.862877 
	C58.799450,125.622581 59.527199,127.240639 59.491421,128.383102 
	C59.111969,140.499008 48.670547,147.959778 37.371742,144.166779 
	C35.734734,143.617249 34.786572,142.544250 34.776814,140.906708 
	C34.751049,136.582397 34.414658,132.190002 35.039978,127.948257 
	C35.951946,121.762062 41.402130,119.972481 46.407158,117.947304 
	C46.407158,117.044800 46.745693,115.980194 46.356598,115.462875 
	C40.073589,107.109406 43.565445,97.872627 43.949780,88.950005 
	C44.019260,87.336823 44.873013,85.759079 44.164394,84.088135 
	C43.215725,81.851143 44.124805,79.925323 45.874020,78.849045 
	C51.469124,75.406387 54.049877,69.409828 58.221733,64.775330 
	C66.597328,55.470921 77.539223,50.432125 88.731346,45.638908 
	C96.859955,42.157696 105.743073,41.413170 113.929268,38.234169 
	C116.352516,37.293133 118.872475,37.700100 121.350540,37.673168 
	C127.182922,37.609791 133.028839,37.893475 138.846466,37.593830 
	C146.351425,37.207279 153.047409,39.934841 160.125351,41.701317 
	C175.749542,45.600727 183.944000,57.116253 190.167770,69.886269 
	C195.190155,80.191322 197.523071,91.887871 198.244400,103.482674 
	C200.686981,142.746155 198.815872,182.065979 199.327148,221.358200 
	C199.448822,230.707855 199.318832,230.721252 189.756851,230.232071 
	C189.132385,230.200119 188.504883,230.227905 187.194550,230.227905 
	C188.734833,239.393433 188.760620,248.350098 188.193649,257.230408 
	C187.739960,264.336060 182.377701,273.107361 174.209183,272.487701 
	C168.154312,272.028442 164.671432,269.128387 163.672943,262.242004 
	C162.817062,256.339172 162.202408,250.400345 158.869873,245.150101 
	C157.902603,243.626236 157.278107,242.181641 155.159180,242.828491 
	C153.189774,243.429718 151.333008,244.127747 151.369522,246.745300 
	C151.413696,249.910873 151.376572,253.078049 151.340973,256.244171 
	C151.244003,264.866913 143.565414,271.423737 134.997223,270.380829 
	C132.739395,270.106018 132.058075,269.064148 131.603271,266.940796 
	C130.358170,261.127686 127.616028,255.689392 127.331482,249.600739 
	C127.275017,248.392532 126.549515,247.058533 125.066826,246.119492 
	C121.805305,251.687485 119.679184,257.724976 117.311714,263.649902 
	C114.678787,270.239136 111.665962,272.116119 104.977409,272.466156 
	C99.626160,272.746246 94.684532,271.663605 93.268028,266.306732 
	C91.677505,260.291779 90.491165,253.988770 90.694595,247.644333 
	C90.806969,244.139740 89.944153,241.115509 87.838509,238.324554 
	C86.294647,236.278229 84.357285,235.351715 81.846901,235.410156 
	C78.965858,235.477249 79.249817,238.019882 78.500694,239.701752 
	C75.610565,246.190430 73.303207,252.922394 69.690880,259.110657 
	C67.234779,263.318115 63.731606,262.702057 60.133751,261.879974 
	C56.365795,261.019043 52.912964,259.494781 53.691143,254.619003 
	C54.878109,247.181915 54.638355,239.702469 54.640919,232.226227 
	C54.641373,230.898727 55.042145,229.042511 54.342224,228.329742 
	C49.911034,223.817017 52.122868,219.728424 54.398632,215.235474 
	C55.876907,212.317001 56.593884,208.937744 56.620445,205.582092 
	C56.762413,187.645798 59.824303,169.828064 58.895279,151.391632 
M85.041443,103.818192 
	C81.508408,104.697632 77.918533,105.265556 74.501587,106.699760 
	C71.345619,108.024437 69.730904,109.670486 68.973106,113.401062 
	C67.060913,122.814728 65.123451,132.176575 63.981197,141.743195 
	C63.569592,145.190475 64.261520,146.950485 66.809479,148.744797 
	C74.059059,153.850067 82.231194,156.206039 90.930458,156.613220 
	C105.202728,157.281235 119.478973,156.239395 133.795181,157.468124 
	C152.906601,159.108429 171.888916,156.358521 190.770172,153.468750 
	C193.468796,153.055725 195.700684,151.846283 195.687363,148.279785 
	C195.630951,133.157883 195.894806,118.033524 194.609436,102.939781 
	C194.239273,98.592972 192.214737,95.282471 188.075684,94.072426 
	C180.962936,91.993042 173.830353,89.145393 166.228241,90.558685 
	C161.910080,91.361465 157.634262,91.328506 153.322235,91.367432 
	C141.605453,91.473236 129.934525,90.853806 118.443413,94.697433 
	C107.776695,98.265312 96.710686,100.639427 85.041443,103.818192 
M79.839684,54.322876 
	C75.583656,56.892868 70.932564,58.989227 67.158607,62.137161 
	C60.490410,67.699234 55.290035,74.704689 51.306816,82.394974 
	C45.733128,93.155937 44.051693,104.021019 51.009918,115.199577 
	C53.601814,119.363525 57.752415,119.580101 61.153767,120.022018 
	C64.460518,120.451645 63.985500,115.904800 64.781723,113.343407 
	C65.077103,112.393196 65.513725,111.432503 65.548637,110.464424 
	C65.794518,103.647400 70.650726,99.084442 73.745506,93.679466 
	C74.445732,92.456528 75.959236,91.204651 77.490013,92.560143 
	C78.853500,93.767494 78.200706,95.195869 77.192879,96.535042 
	C76.117683,97.963730 75.261917,99.557571 74.293228,101.106712 
	C75.688225,101.928719 76.794662,101.514595 77.899773,101.216591 
	C87.508224,98.625549 97.102753,95.981453 106.728783,93.457481 
	C114.383125,91.450500 121.991394,88.519196 129.770554,87.905632 
	C142.660797,86.888962 155.697647,88.197906 168.613831,86.639542 
	C176.341782,85.707146 183.489304,88.824577 191.038910,90.052376 
	C190.798676,83.392128 189.409515,77.319214 186.669327,71.942505 
	C179.431503,57.740631 169.027786,46.976299 152.668991,43.389191 
	C139.554092,40.513390 126.522110,40.339748 113.329666,43.115150 
	C101.939293,45.511429 90.911346,48.785801 79.839684,54.322876 
M70.846848,246.371063 
	C71.470825,244.312469 71.862335,242.143753 72.773094,240.220993 
	C74.150749,237.312515 74.579880,233.428009 77.750793,232.004166 
	C84.764191,228.854950 93.738045,234.460693 94.174080,242.406174 
	C94.511574,248.556244 95.537674,254.570374 96.269714,260.646301 
	C96.726135,264.434601 97.783501,267.680969 101.832932,268.493011 
	C106.291481,269.387085 110.161461,268.163147 112.196884,263.618195 
	C115.042381,257.264404 117.875565,250.902832 120.554993,244.478256 
	C121.386269,242.485092 121.592705,240.145508 124.312088,239.803543 
	C127.283432,239.429886 128.314331,241.814117 129.447784,243.781403 
	C130.262756,245.195953 131.016006,246.814545 131.180176,248.405746 
	C131.816010,254.568176 134.063980,260.240540 136.010818,265.991699 
	C143.580826,265.337189 147.536499,261.196411 147.644043,253.879059 
	C147.685638,251.048889 147.734283,248.215988 147.657944,245.387619 
	C147.549911,241.384842 150.183853,239.641876 153.418854,238.962585 
	C156.875412,238.236786 160.212906,238.189926 162.359848,242.264038 
	C165.367737,247.971893 166.549576,254.051727 167.378281,260.312683 
	C168.368088,267.790863 173.844391,271.132446 178.368942,266.737671 
	C181.701340,263.500916 184.777252,259.574341 184.679703,254.254379 
	C184.554962,247.450287 184.305984,240.667297 183.879623,233.868881 
	C183.563690,228.831100 181.805573,226.924332 177.133240,225.980103 
	C163.726639,223.270828 150.094116,223.415939 136.563324,222.463974 
	C114.132446,220.885864 92.033623,226.847778 69.498146,225.661179 
	C58.863655,225.101227 56.640667,229.341263 58.814648,240.085358 
	C59.578152,243.858704 60.120224,247.788376 58.546696,251.351044 
	C57.222630,254.348877 57.081818,256.037842 60.458157,257.612762 
	C64.107719,259.315186 65.605156,257.791351 66.899490,254.729355 
	C67.998886,252.128540 69.370956,249.642975 70.846848,246.371063 
M155.370056,161.358337 
	C147.480789,161.358337 139.591522,161.358337 131.309952,161.358337 
	C132.855423,170.830399 140.693420,168.150070 145.418320,170.412003 
	C145.175217,172.475281 143.622482,173.025467 142.439102,173.827606 
	C136.952728,177.546463 136.850006,177.572189 140.222488,183.511276 
	C141.319580,185.443283 141.624374,187.207245 140.738968,189.167038 
	C140.057632,190.675110 139.391190,192.534561 137.242157,191.957047 
	C135.247513,191.421066 135.617981,189.644440 136.053726,188.216232 
	C137.155716,184.604416 134.268692,184.115814 132.141830,182.986191 
	C130.809982,182.278793 129.283600,181.200577 128.072083,182.666550 
	C126.284081,184.830109 128.257904,186.784973 129.166489,188.534912 
	C132.140884,194.263657 133.966278,200.190826 133.422653,206.712036 
	C133.162430,209.833740 132.085632,212.199722 128.451080,212.408920 
	C126.702621,212.509567 124.326599,212.118820 124.714554,215.015228 
	C125.027184,217.349396 126.286743,218.763641 129.088531,218.709534 
	C136.063248,218.574875 143.018982,219.069687 149.989212,219.488388 
	C160.093430,220.095306 170.178406,220.482086 180.137924,222.462357 
	C184.304321,223.290787 186.211700,221.493973 185.372330,217.257370 
	C184.870575,214.724915 183.669647,212.330978 182.467056,208.999588 
	C189.815460,210.077148 186.546402,203.156830 189.802597,200.423721 
	C190.376984,202.135681 191.031403,203.619644 191.349747,205.172531 
	C191.639771,206.587234 191.112259,208.450638 193.431580,208.392838 
	C195.952744,208.329987 195.626785,206.334869 195.634033,204.715591 
	C195.664627,197.884598 195.646988,191.053391 195.646988,183.868607 
	C192.910812,185.579208 192.487701,181.504028 190.185654,181.969040 
	C188.583725,182.265717 188.514999,185.109009 185.615585,184.121109 
	C186.159134,179.839218 187.431519,175.052658 181.607742,171.143539 
	C189.027618,170.983124 188.309326,165.417709 190.229111,162.134247 
	C193.514618,163.600204 190.788757,168.354935 195.340225,169.441849 
	C195.618484,165.179352 196.138382,161.226074 195.065109,157.045151 
	C181.916107,158.025116 169.293503,161.317352 155.370056,161.358337 
M62.049713,187.076675 
	C62.085434,187.239288 62.082821,187.426910 62.167873,187.557358 
	C62.249928,187.683197 62.508602,187.855362 62.542671,187.827469 
	C63.527134,187.022095 64.493103,186.194107 65.709999,185.158798 
	C66.963791,187.685989 69.397835,188.575409 72.354836,189.629349 
	C69.869736,191.499893 69.351318,193.623367 69.910851,196.546295 
	C66.203255,194.730728 63.346222,195.471512 60.512848,197.481674 
	C59.644402,205.716675 62.518494,214.653183 56.416115,221.647018 
	C57.525551,223.246902 58.499088,223.399902 59.516506,223.134521 
	C69.683586,220.482483 80.049744,221.761948 90.321976,221.757065 
	C97.240227,221.753784 103.868721,220.651062 110.442543,218.794220 
	C114.455368,217.660736 115.420753,214.634720 112.843727,211.472961 
	C111.827354,210.225952 110.196236,209.337585 110.465759,207.352173 
	C115.327774,206.129242 115.256706,206.096512 118.083687,199.957947 
	C118.919563,198.142914 120.385269,196.153687 122.691582,197.108932 
	C125.564354,198.298828 123.600616,199.989426 122.574272,201.413696 
	C121.516579,202.881454 121.882706,204.351013 122.874329,205.548584 
	C124.265305,207.228455 126.241615,206.782288 127.980988,206.290726 
	C129.852615,205.761810 129.854507,203.973480 129.574142,202.542358 
	C128.393555,196.515884 125.700798,191.149872 122.359711,185.738953 
	C118.654648,188.711761 117.560081,193.809708 112.523293,194.349396 
	C108.004982,194.833527 103.954567,194.211365 101.585976,189.903107 
	C97.159416,191.643188 102.636665,192.870102 100.809311,195.034821 
	C96.135765,196.715958 97.506790,201.304382 98.215179,205.262680 
	C95.593399,206.190353 94.439209,202.945694 92.435333,204.076797 
	C90.465942,206.149261 93.890831,207.433533 92.837807,209.244965 
	C88.905228,210.582443 85.021286,207.495483 86.064003,203.256729 
	C86.882050,199.931274 86.348152,197.898865 83.594177,196.087524 
	C82.716293,195.510117 81.887512,194.446838 83.063042,192.518387 
	C88.480400,194.554413 90.204933,190.596176 91.268539,186.479401 
	C93.644981,186.151581 92.827339,189.308456 95.118980,188.885925 
	C98.553070,185.403854 101.059280,181.171982 102.421013,176.286942 
	C102.957054,174.363983 102.283554,172.658478 100.880913,171.298096 
	C99.911850,170.358246 98.829453,170.539627 97.664268,171.108429 
	C94.268585,172.766083 92.863815,177.849792 95.120872,180.922745 
	C95.755310,181.786514 96.381668,182.509140 95.759499,183.542984 
	C95.189796,184.489639 94.210602,184.734756 93.164917,184.670410 
	C90.870445,184.529221 89.504608,183.183990 88.870132,181.099899 
	C86.776184,174.221954 93.888901,165.614670 100.994957,166.808731 
	C109.137558,168.176971 117.229462,168.986725 125.555969,167.483749 
	C126.360809,165.564606 128.044617,163.773895 127.806000,161.042831 
	C124.067993,159.726013 120.235191,160.597504 116.489365,160.412979 
	C104.714775,159.832886 92.849327,161.629837 81.152313,159.304565 
	C75.037552,158.089020 69.192200,155.920456 62.945740,151.962265 
	C61.638790,164.052597 62.838707,175.310791 62.049713,187.076675 
M49.917484,138.532120 
	C53.693954,136.483719 54.824806,132.781387 55.548046,129.005569 
	C56.324200,124.953514 54.473316,122.634079 50.249531,122.402130 
	C40.463524,121.864754 36.916275,130.067245 38.543602,138.903183 
	C38.747643,140.011047 39.664593,140.563080 40.753017,140.566544 
	C43.695503,140.575912 46.799313,141.366333 49.917484,138.532120 
M107.348984,178.491531 
	C111.305496,182.069992 109.135826,185.711517 107.001427,189.447769 
	C112.006882,192.161926 114.037659,188.792313 115.712799,185.656311 
	C118.269173,180.870560 115.233162,175.075256 108.884071,171.996429 
	C106.925369,173.530945 105.646446,175.299301 107.348984,178.491531 
M135.040695,177.076553 
	C132.676971,173.992371 129.793625,175.712387 127.030243,175.919495 
	C126.719246,177.450745 126.464790,178.703613 126.056541,180.713699 
	C129.643250,178.160660 132.533218,181.399490 135.595947,181.027985 
	C136.811615,179.619034 135.584183,178.689270 135.040695,177.076553 
M192.408356,171.530762 
	C190.350296,170.383926 188.719299,170.925018 187.098923,173.032791 
	C188.840836,174.568100 187.800171,176.980621 188.850418,178.828003 
	C190.104431,178.727051 191.224442,178.636887 192.823456,178.508163 
	C190.917007,176.076996 195.969360,174.198090 192.408356,171.530762 
M115.527336,209.887833 
	C116.618309,211.668335 116.209015,213.688797 116.444908,216.036697 
	C118.362724,214.539505 120.417191,215.434052 122.401482,215.516678 
	C122.287720,210.147675 119.687996,207.910263 115.527336,209.887833 
M193.917526,222.631912 
	C195.182816,224.369019 192.154022,224.863159 192.483353,226.608170 
	C195.973816,224.720001 196.778839,219.286194 194.703049,213.330765 
	C192.839554,216.092392 193.333496,219.035675 193.917526,222.631912 
M187.277496,213.361938 
	C188.782898,214.746170 187.889389,216.735855 188.554230,218.776169 
	C193.119431,217.869904 189.676636,213.510605 192.817261,211.648407 
	C189.986191,211.309692 188.054077,209.833344 187.277496,213.361938 
M130.453247,166.725204 
	C127.461647,165.501602 127.797897,168.017929 127.599190,169.487396 
	C127.424545,170.778900 128.432327,171.749542 129.754578,171.359955 
	C132.208054,170.637039 131.900681,168.951096 130.453247,166.725204 
z"/>
<path fill="#000000" opacity="1.000000" stroke="none" 
	d="
M168.909134,114.094330 
	C167.028244,113.132683 165.373779,113.290642 163.750504,113.658455 
	C162.288574,113.989700 160.492828,114.767700 160.176010,112.573807 
	C159.871185,110.462944 161.728592,109.660652 163.460999,109.771507 
	C167.251724,110.014061 170.929688,108.762627 174.811127,109.445351 
	C177.247437,109.873894 179.825317,110.308235 182.585770,109.328629 
	C185.454147,108.310707 186.970169,111.809311 185.744843,113.091164 
	C181.618454,117.407913 182.032043,122.771805 181.019241,127.846397 
	C180.939178,128.247559 180.417313,128.560532 179.829819,129.217484 
	C176.964752,125.891785 174.191315,126.336357 171.475967,129.414078 
	C170.827682,130.148880 169.663300,130.365692 168.725052,129.704697 
	C167.604538,128.915314 167.796814,127.698898 167.919769,126.531479 
	C168.346832,122.476906 170.534882,118.604820 168.909134,114.094330 
M173.383621,116.042770 
	C173.941147,118.198456 171.799377,121.283463 175.199020,122.396332 
	C176.958313,122.972221 177.839935,121.211121 178.196304,119.773796 
	C178.693695,117.767639 179.646835,115.414581 177.365189,113.933563 
	C175.840088,112.943626 174.160461,113.092812 173.383621,116.042770 
z"/>
<path fill="#000000" opacity="1.000000" stroke="none" 
	d="
M91.251404,117.211426 
	C100.939796,113.507111 110.882187,113.764282 120.790993,113.806282 
	C122.299721,113.812683 123.674301,114.949509 122.740028,116.407928 
	C120.952019,119.199089 121.459930,122.175156 121.315498,125.114166 
	C121.164070,128.195450 119.251556,129.060455 116.959229,127.853363 
	C114.467003,126.541023 112.570076,127.126923 110.471794,128.326752 
	C107.298820,130.141113 105.942719,128.975327 105.653763,125.536011 
	C105.008324,117.853653 104.963409,117.964668 97.268753,119.084030 
	C95.200928,119.384834 92.579193,120.540886 91.251404,117.211426 
M114.533485,117.395622 
	C111.257690,117.716942 108.699219,118.643593 109.758530,123.075752 
	C111.592392,122.921463 113.194069,122.748070 114.800423,122.662964 
	C116.261078,122.585587 117.430710,122.213684 117.573029,120.498306 
	C117.713829,118.801201 117.267021,117.527809 114.533485,117.395622 
z"/>
<path fill="#000000" opacity="1.000000" stroke="none" 
	d="
M169.977264,194.706299 
	C172.636368,195.444260 171.631607,197.010696 170.710999,197.689484 
	C166.356628,200.900040 166.082245,204.879807 167.961853,209.480331 
	C168.183823,210.023621 167.992004,210.735977 167.992004,211.538040 
	C164.759308,211.348434 162.950439,208.879074 160.362015,207.632690 
	C158.050674,208.959579 156.483810,211.770721 152.474197,211.647644 
	C155.705948,205.322449 154.207428,200.108627 148.654816,196.008820 
	C149.369400,195.730835 160.189163,185.618591 160.505783,185.089081 
	C163.649551,188.300934 161.791000,196.522919 169.977264,194.706299 
M154.112030,198.423920 
	C156.867325,200.768677 156.397400,204.008499 156.407974,207.143341 
	C160.506653,204.927078 160.506653,204.927078 164.933517,207.115280 
	C163.671997,203.436523 165.505493,200.421051 166.973740,197.070770 
	C163.933609,196.525040 161.377975,195.816452 160.610535,192.339294 
	C160.000031,196.562668 155.735657,195.667542 154.112030,198.423920 
z"/>
<path fill="#000000" opacity="1.000000" stroke="none" 
	d="
M143.434662,201.573563 
	C145.938568,203.632233 146.688858,206.005951 146.307327,208.889359 
	C145.886459,212.070190 144.311050,213.530655 140.974121,213.394409 
	C137.589630,213.256241 136.136124,211.176727 135.758804,208.384018 
	C135.313766,205.090286 137.720367,205.669006 140.739883,206.301651 
	C138.047073,203.802933 137.158707,201.355209 137.729004,198.500824 
	C138.403610,195.124313 143.505051,193.309296 146.084824,195.550781 
	C147.042648,196.382980 147.449783,197.435364 147.116074,198.684235 
	C146.538132,200.847198 144.767151,199.959396 143.399811,200.111679 
	C143.269897,200.126144 143.048187,200.301254 143.055313,200.386154 
	C143.081894,200.702408 143.186157,201.012131 143.434662,201.573563 
z"/>
<path fill="#000000" opacity="1.000000" stroke="none" 
	d="
M168.374741,164.815979 
	C169.154816,167.841995 171.971817,167.251053 173.837616,168.569260 
	C172.058548,171.375473 170.142532,174.182922 172.819351,178.519180 
	C168.792740,176.897308 165.695358,175.908737 161.938049,179.031708 
	C163.333923,174.362946 162.145248,171.299988 159.677200,168.383286 
	C162.315796,167.187820 165.270233,167.265717 166.061172,163.916824 
	C166.385193,162.544907 167.571625,163.870316 168.374741,164.815979 
M166.691864,168.777771 
	C165.407883,170.186234 164.700790,171.686661 166.087143,173.870148 
	C168.632004,172.393875 171.699570,171.377457 166.691864,168.777771 
z"/>
<path fill="#000000" opacity="1.000000" stroke="none" 
	d="
M71.131958,176.899506 
	C71.074074,179.233871 69.444931,179.767914 66.535568,180.750214 
	C69.068085,175.508057 68.771812,171.505951 63.435379,169.004288 
	C69.411659,166.758835 69.411659,166.758835 73.778595,160.932541 
	C75.540184,164.875854 77.277458,168.843124 83.901596,167.632080 
	C80.602867,171.839722 75.618004,174.718414 81.095261,179.775528 
	C76.647766,180.504761 74.908745,176.695236 71.579910,176.663101 
	C74.248383,174.796158 77.747902,174.052704 77.692230,169.257141 
	C75.466492,171.658981 75.112000,166.093262 72.084244,168.643509 
	C68.704033,171.490646 70.512802,174.065369 71.131958,176.899506 
z"/>
<path fill="#000000" opacity="1.000000" stroke="none" 
	d="
M80.100204,217.820450 
	C77.603378,218.677948 76.435257,216.377609 74.495224,215.946594 
	C72.775024,216.614502 71.569962,218.779129 68.920380,217.814423 
	C69.205986,214.563217 71.608292,210.465561 65.410904,208.847275 
	C70.045120,207.692551 73.516273,206.434021 73.775940,200.248901 
	C76.524803,204.887268 77.932327,208.739487 84.092171,207.831665 
	C79.728798,210.980576 79.173775,214.080536 80.100204,217.820450 
M71.777527,210.370895 
	C72.009506,211.599823 72.241493,212.828735 72.448898,213.927460 
	C73.928383,213.842209 75.379738,213.758591 76.827446,213.662552 
	C77.652794,209.272995 74.701851,209.775192 71.777527,210.370895 
z"/>
</svg>